<svg xmlns="http://www.w3.org/2000/svg" xmlns:xlink="http://www.w3.org/1999/xlink" width="504" height="504" viewBox="-165 -165 330 330"><g fill="#fcbf49" stroke="#843511" stroke-width="1.5"><g id="d"><g id="c"><g id="b"><g id="a"><path d="m-8 0 6 159.5s0 3 2 3 2-3 2-3L8 0"/><path d="m-4 0 4 109.5L4 0" fill="#843511" stroke="none"/><path d="M-4.5 53.5c-5 21.5 6 36 .5 55s3 32 4 40-5 11.5-3 13S5 158 5.5 147s-7-15.75-.5-39-4-31 3-52" transform="rotate(11.5)"/><path d="M-1 58c-3 21 7 32.5 1 51 8-14-2-28 3-50" fill="#843511" stroke="none" transform="rotate(11.5)"/></g><use xlink:href="#a" transform="rotate(180)"/></g><use xlink:href="#b" transform="rotate(90)"/></g><use xlink:href="#c" transform="rotate(45)"/></g><use xlink:href="#d" transform="rotate(22.5)"/><circle r="65" stroke-width="1"/><g id="e" fill="#843511" stroke="none"><path d="M41-14C29.5-24 15-25.5 7-18A140 50 10 0 0 8.5 8.5c-.5 0-1.5.5-2 1A80 50 10 0 1 4-19c11-9 26-10 37 5"/><path d="M23-17c-6.5 0-8 1.5-11 4s-4.5 2-5 2.5 0 2 1 1.5 3-1.5 6-4 6-2.5 9-2.5c9 0 14 7.5 15 7S33-17 23-17"/><path d="M34.5-8.5C28-15.5 16-16 11-8h2c5-8 17-4.5 18-1v1"/><circle cx="22" cy="-9" r="4.5"/><path d="M11-8c5 4.5 16 5 23.5-.5L31-9c-5 5.5-13 5-18 1v-1"/><path d="M35-6C26.5.5 18 0 13-3S8-7 9-7s2 1 6 3 10 2 20-2M10.5 9a3 3 0 1 1-4 3C6 13 4 16 0 16h-1l1 1.5c1 0 4 0 6-1.5a4.5 4.5 0 1 0 4.5-7M16.5 30C12 27 10 22.5 5 22.5c-1 0-3 .5-5 1.5h-1l1 1.5c2 0 5-2.5 8.5-.5s5.5 4 8 5M15 30C5 27 3 29 0 29h-1l1 2c4 0 6-3 15-1"/><path d="M16.5 30C5.5 29 9 35.5 0 35.5h-1L0 37c11 0 6-6 16.5-7"/><path d="M9 46a9 9 0 0 0-18 0 9.25 9.25 0 0 1 18 0"/></g><use xlink:href="#e" transform="scale(-1 1)"/></g></svg>