<?xml version="1.0" encoding="UTF-8"?>
<!DOCTYPE svg PUBLIC "-//W3C//DTD SVG 1.1//EN" "http://www.w3.org/Graphics/SVG/1.1/DTD/svg11.dtd">
<svg xmlns="http://www.w3.org/2000/svg" version="1.1" width="500px" height="500px"
    style="shape-rendering:geometricPrecision; text-rendering:geometricPrecision; image-rendering:optimizeQuality; fill-rule:evenodd; clip-rule:evenodd"
    xmlns:xlink="http://www.w3.org/1999/xlink">
    <g>
        <path style="opacity:0.004" fill="#fefffe"
            d="M 110.5,24.5 C 111.833,25.1667 111.833,25.1667 110.5,24.5 Z" />
    </g>
    <g>
        <path style="opacity:0.004" fill="#fefffe"
            d="M 4.5,28.5 C 5.83333,29.1667 5.83333,29.1667 4.5,28.5 Z" />
    </g>
    <g>
        <path style="opacity:0.004" fill="#fefffe"
            d="M 410.5,28.5 C 411.833,29.1667 411.833,29.1667 410.5,28.5 Z" />
    </g>
    <g>
        <path style="opacity:0.004" fill="#fefffe"
            d="M 461.5,36.5 C 462.833,37.1667 462.833,37.1667 461.5,36.5 Z" />
    </g>
    <g>
        <path style="opacity:0.004" fill="#fefffe"
            d="M 420.5,38.5 C 421.833,39.1667 421.833,39.1667 420.5,38.5 Z" />
    </g>
    <g>
        <path style="opacity:0.004" fill="#fefffe"
            d="M 201.5,44.5 C 202.833,45.1667 202.833,45.1667 201.5,44.5 Z" />
    </g>
    <g>
        <path style="opacity:0.778" fill="#0e0e0e"
            d="M 257.5,65.5 C 257.631,66.2389 257.464,66.9056 257,67.5C 253.25,66.85 249.416,66.5166 245.5,66.5C 234.658,66.9547 224.158,68.288 214,70.5C 212.93,70.472 212.097,70.1386 211.5,69.5C 226.586,65.9755 241.919,64.6422 257.5,65.5 Z" />
    </g>
    <g>
        <path style="opacity:0.999" fill="#161415"
            d="M 257.5,65.5 C 259.5,65.5 261.5,65.5 263.5,65.5C 265.102,67.0739 267.102,67.7406 269.5,67.5C 269.351,68.552 269.517,69.552 270,70.5C 270.674,69.4216 271.674,68.7549 273,68.5C 275.763,68.9177 278.43,69.5844 281,70.5C 282.343,69.7865 283.676,70.1198 285,71.5C 289.058,71.0979 293.225,71.0979 297.5,71.5C 303.748,72.892 309.748,74.892 315.5,77.5C 318.56,79.0886 321.727,80.7553 325,82.5C 325.399,82.2716 325.565,81.9382 325.5,81.5C 328.022,82.0115 330.355,83.0115 332.5,84.5C 334.669,86.4141 336.836,88.4141 339,90.5C 339.333,90.1667 339.667,89.8333 340,89.5C 340.359,92.5443 341.026,92.8776 342,90.5C 343,91.8333 344,93.1667 345,94.5C 345.333,94.1667 345.667,93.8333 346,93.5C 348.951,95.6449 352.117,97.3115 355.5,98.5C 359.458,100.795 363.125,103.462 366.5,106.5C 367.782,108.464 369.115,110.464 370.5,112.5C 374.079,113.766 377.079,115.766 379.5,118.5C 379.5,119.5 379.5,120.5 379.5,121.5C 380.552,121.351 381.552,121.517 382.5,122C 384.734,125.736 387.734,128.57 391.5,130.5C 392.449,132.777 393.782,134.777 395.5,136.5C 397.816,137.422 399.483,139.089 400.5,141.5C 399.953,143.712 400.953,145.379 403.5,146.5C 405.25,147.659 406.25,149.326 406.5,151.5C 407.581,153.764 408.915,155.931 410.5,158C 409.828,159.579 410.495,160.746 412.5,161.5C 415.225,165.268 417.725,169.268 420,173.5C 422.792,180.079 425.292,186.745 427.5,193.5C 427.062,193.435 426.728,193.601 426.5,194C 427.249,195.734 427.749,197.567 428,199.5C 428.383,200.056 428.883,200.389 429.5,200.5C 432.492,209.622 434.658,218.955 436,228.5C 441.27,272.725 432.937,314.059 411,352.5C 409.147,354.903 407.314,357.236 405.5,359.5C 402.966,360.634 401.633,362.634 401.5,365.5C 399.158,368.684 396.992,372.017 395,375.5C 389.703,381.149 384.203,386.482 378.5,391.5C 377.206,392.29 376.039,393.29 375,394.5C 374.667,393.833 374.333,393.167 374,392.5C 373.51,393.793 373.343,395.127 373.5,396.5C 373.027,397.906 372.027,398.573 370.5,398.5C 368.567,400.596 366.233,402.096 363.5,403C 362.748,403.671 362.414,404.504 362.5,405.5C 356.039,410.438 349.372,415.272 342.5,420C 336.929,422.119 331.596,424.785 326.5,428C 321.072,429.589 315.739,431.589 310.5,434C 307.167,434.667 303.833,434.667 300.5,434C 299.944,433.617 299.611,433.117 299.5,432.5C 299.297,430.61 299.963,429.11 301.5,428C 300.181,426.372 298.848,426.539 297.5,428.5C 296.667,405.507 296.167,382.507 296,359.5C 295.422,356.097 294.255,352.93 292.5,350C 293.167,349.667 293.833,349.333 294.5,349C 292.254,346.248 289.588,344.082 286.5,342.5C 286.443,341.391 286.11,340.391 285.5,339.5C 287.321,337.143 289.655,336.809 292.5,338.5C 295.692,337.134 299.026,336.301 302.5,336C 304.32,335.8 305.653,334.966 306.5,333.5C 345.094,323.06 365.761,297.727 368.5,257.5C 369.456,255.453 370.456,253.287 371.5,251C 370.739,244.209 369.905,237.375 369,230.5C 368.428,226.837 367.262,223.503 365.5,220.5C 362.925,215.312 360.425,209.978 358,204.5C 354.99,201.089 352.156,197.589 349.5,194C 355.166,177.648 354.666,161.481 348,145.5C 341.871,144.386 335.704,144.553 329.5,146C 323.474,148.715 317.474,151.381 311.5,154C 306.613,157.395 301.613,160.562 296.5,163.5C 265.3,155.515 234.133,155.515 203,163.5C 192.385,156.774 181.218,150.941 169.5,146C 163.529,144.869 157.529,144.536 151.5,145C 144.469,160.902 143.803,177.068 149.5,193.5C 147.336,195.822 145.669,198.489 144.5,201.5C 142.745,202.072 141.078,202.906 139.5,204C 140.056,204.383 140.389,204.883 140.5,205.5C 131.628,222.396 128.461,240.396 131,259.5C 132.665,276.184 137.998,291.517 147,305.5C 149.698,309.025 152.531,312.358 155.5,315.5C 156.911,317.914 158.911,319.581 161.5,320.5C 163.153,320.66 164.486,321.326 165.5,322.5C 166.802,324.822 168.802,326.155 171.5,326.5C 173.1,329.184 175.266,330.184 178,329.5C 179.333,330.167 180.333,331.167 181,332.5C 183.237,332.404 185.404,332.404 187.5,332.5C 193.02,333.547 198.354,334.88 203.5,336.5C 206.042,337.039 208.208,338.372 210,340.5C 210.333,340.167 210.667,339.833 211,339.5C 210.981,341.107 210.815,342.774 210.5,344.5C 206.637,350.611 204.304,357.278 203.5,364.5C 193.844,368.206 183.844,369.373 173.5,368C 165.693,365.783 159.36,361.617 154.5,355.5C 154.414,354.504 154.748,353.671 155.5,353C 153.517,351.886 151.85,350.386 150.5,348.5C 149.359,347.575 149.359,346.741 150.5,346C 149.167,345.333 147.833,344.667 146.5,344C 146.833,343.667 147.167,343.333 147.5,343C 144.299,340.298 141.632,337.131 139.5,333.5C 136.003,332.499 132.336,331.166 128.5,329.5C 128.167,329.5 127.833,329.5 127.5,329.5C 127.389,328.883 127.056,328.383 126.5,328C 122.167,327.333 117.833,327.333 113.5,328C 110.59,329.173 109.923,331.006 111.5,333.5C 115.5,336.5 119.5,339.5 123.5,342.5C 124.974,345.249 126.974,347.582 129.5,349.5C 131.379,350.897 133.046,352.563 134.5,354.5C 137.608,362.52 141.274,370.186 145.5,377.5C 145.389,378.117 145.056,378.617 144.5,379C 147.646,380.657 150.646,382.491 153.5,384.5C 154.188,386.807 155.354,388.14 157,388.5C 159.454,386.987 161.121,387.654 162,390.5C 162.464,389.906 162.631,389.239 162.5,388.5C 165.267,388.858 167.933,389.525 170.5,390.5C 170.918,391.222 171.584,391.722 172.5,392C 182.927,392.931 193.26,392.431 203.5,390.5C 203.667,403.504 203.5,416.504 203,429.5C 201.951,431.384 200.451,432.718 198.5,433.5C 195.344,433.163 192.011,433.163 188.5,433.5C 185.673,432.892 183.007,431.892 180.5,430.5C 180.047,429.542 179.381,428.708 178.5,428C 174.189,426.515 169.855,425.015 165.5,423.5C 156.423,419.76 148.09,414.76 140.5,408.5C 139.375,406.871 138.041,405.371 136.5,404C 137.167,403.667 137.833,403.333 138.5,403C 136.05,401.94 133.717,401.773 131.5,402.5C 130.833,399.167 128.833,397.167 125.5,396.5C 124.833,396.5 124.5,396.167 124.5,395.5C 122.687,391.271 119.687,388.271 115.5,386.5C 114.145,383.145 111.811,380.811 108.5,379.5C 96.552,366.511 86.8853,351.844 79.5,335.5C 79.6602,333.801 79.4935,332.134 79,330.5C 78.5831,329.244 77.7498,328.577 76.5,328.5C 76.5,328.167 76.5,327.833 76.5,327.5C 75.7517,325.416 75.7517,323.416 76.5,321.5C 75.0098,320.174 73.6765,318.674 72.5,317C 72.8333,316.667 73.1667,316.333 73.5,316C 72.0945,311.704 70.4279,307.537 68.5,303.5C 65.9112,296.14 64.0778,288.473 63,280.5C 57.6455,236.272 65.9788,194.938 88,156.5C 90.7481,153.266 93.2481,149.932 95.5,146.5C 96.9063,146.027 97.573,145.027 97.5,143.5C 125.495,104.08 163.495,79.4132 211.5,69.5C 212.097,70.1386 212.93,70.472 214,70.5C 224.158,68.288 234.658,66.9547 245.5,66.5C 249.416,66.5166 253.25,66.85 257,67.5C 257.464,66.9056 257.631,66.2389 257.5,65.5 Z" />
    </g>
    <g>
        <path style="opacity:0.57" fill="#0f0f0f"
            d="M 263.5,65.5 C 275.113,66.6564 286.446,68.6564 297.5,71.5C 293.225,71.0979 289.058,71.0979 285,71.5C 283.676,70.1198 282.343,69.7865 281,70.5C 278.43,69.5844 275.763,68.9177 273,68.5C 271.674,68.7549 270.674,69.4216 270,70.5C 269.517,69.552 269.351,68.552 269.5,67.5C 267.102,67.7406 265.102,67.0739 263.5,65.5 Z" />
    </g>
    <g>
        <path style="opacity:0.949" fill="#080808"
            d="M 315.5,77.5 C 319.277,77.9337 322.61,79.267 325.5,81.5C 325.565,81.9382 325.399,82.2716 325,82.5C 321.727,80.7553 318.56,79.0886 315.5,77.5 Z" />
    </g>
    <g>
        <path style="opacity:0.841" fill="#0c0a0b"
            d="M 332.5,84.5 C 340.98,88.0105 348.646,92.6772 355.5,98.5C 352.117,97.3115 348.951,95.6449 346,93.5C 345.667,93.8333 345.333,94.1667 345,94.5C 344,93.1667 343,91.8333 342,90.5C 341.026,92.8776 340.359,92.5443 340,89.5C 339.667,89.8333 339.333,90.1667 339,90.5C 336.836,88.4141 334.669,86.4141 332.5,84.5 Z" />
    </g>
    <g>
        <path style="opacity:0.004" fill="#fefffe"
            d="M 446.5,99.5 C 447.833,100.167 447.833,100.167 446.5,99.5 Z" />
    </g>
    <g>
        <path style="opacity:0.784" fill="#0b0a0a"
            d="M 366.5,106.5 C 369.067,108.454 371.734,110.287 374.5,112C 376.765,113.758 378.432,115.925 379.5,118.5C 377.079,115.766 374.079,113.766 370.5,112.5C 369.115,110.464 367.782,108.464 366.5,106.5 Z" />
    </g>
    <g>
        <path style="opacity:0.604" fill="#090809"
            d="M 379.5,118.5 C 384.386,121.597 388.386,125.597 391.5,130.5C 387.734,128.57 384.734,125.736 382.5,122C 381.552,121.517 380.552,121.351 379.5,121.5C 379.5,120.5 379.5,119.5 379.5,118.5 Z" />
    </g>
    <g>
        <path style="opacity:0.518" fill="#0b0809"
            d="M 391.5,130.5 C 394.044,131.708 395.378,133.708 395.5,136.5C 393.782,134.777 392.449,132.777 391.5,130.5 Z" />
    </g>
    <g>
        <path style="opacity:0.004" fill="#fefffe"
            d="M 448.5,135.5 C 449.833,136.167 449.833,136.167 448.5,135.5 Z" />
    </g>
    <g>
        <path style="opacity:0.004" fill="#fefffe"
            d="M 7.5,137.5 C 8.83333,138.167 8.83333,138.167 7.5,137.5 Z" />
    </g>
    <g>
        <path style="opacity:0.755" fill="#0b0909"
            d="M 400.5,141.5 C 401.89,142.899 402.89,144.566 403.5,146.5C 400.953,145.379 399.953,143.712 400.5,141.5 Z" />
    </g>
    <g>
        <path style="opacity:0.753" fill="#0a0607"
            d="M 97.5,143.5 C 97.573,145.027 96.9063,146.027 95.5,146.5C 95.427,144.973 96.0937,143.973 97.5,143.5 Z" />
    </g>
    <g>
        <path style="opacity:0.004" fill="#fefffe"
            d="M 35.5,153.5 C 36.8333,154.167 36.8333,154.167 35.5,153.5 Z" />
    </g>
    <g>
        <path style="opacity:0.933" fill="#090909"
            d="M 406.5,151.5 C 410.018,153.861 412.018,157.195 412.5,161.5C 410.495,160.746 409.828,159.579 410.5,158C 408.915,155.931 407.581,153.764 406.5,151.5 Z" />
    </g>
    <g>
        <path style="opacity:0.004" fill="#fefffe"
            d="M 422.5,162.5 C 423.833,163.167 423.833,163.167 422.5,162.5 Z" />
    </g>
    <g>
        <path style="opacity:0.004" fill="#fefffe"
            d="M 182.5,178.5 C 183.833,179.167 183.833,179.167 182.5,178.5 Z" />
    </g>
    <g>
        <path style="opacity:0.004" fill="#fefffe"
            d="M 485.5,194.5 C 486.833,195.167 486.833,195.167 485.5,194.5 Z" />
    </g>
    <g>
        <path style="opacity:0.004" fill="#fefffe"
            d="M 259.5,195.5 C 260.833,196.167 260.833,196.167 259.5,195.5 Z" />
    </g>
    <g>
        <path style="opacity:0.959" fill="#080607"
            d="M 427.5,193.5 C 428.407,195.657 429.073,197.99 429.5,200.5C 428.883,200.389 428.383,200.056 428,199.5C 427.749,197.567 427.249,195.734 426.5,194C 426.728,193.601 427.062,193.435 427.5,193.5 Z" />
    </g>
    <g>
        <path style="opacity:0.494" fill="#090809"
            d="M 144.5,201.5 C 143.5,203.167 142.167,204.5 140.5,205.5C 140.389,204.883 140.056,204.383 139.5,204C 141.078,202.906 142.745,202.072 144.5,201.5 Z" />
    </g>
    <g>
        <path style="opacity:0.004" fill="#fefffe"
            d="M 342.5,201.5 C 343.833,202.167 343.833,202.167 342.5,201.5 Z" />
    </g>
    <g>
        <path style="opacity:0.004" fill="#fefffe"
            d="M 271.5,206.5 C 272.833,207.167 272.833,207.167 271.5,206.5 Z" />
    </g>
    <g>
        <path style="opacity:0.004" fill="#fefefe"
            d="M 470.5,212.5 C 471.833,213.167 471.833,213.167 470.5,212.5 Z" />
    </g>
    <g>
        <path style="opacity:0.004" fill="#fefffe"
            d="M 330.5,218.5 C 331.833,219.167 331.833,219.167 330.5,218.5 Z" />
    </g>
    <g>
        <path style="opacity:0.004" fill="#fefffe"
            d="M 207.5,221.5 C 208.833,222.167 208.833,222.167 207.5,221.5 Z" />
    </g>
    <g>
        <path style="opacity:0.004" fill="#fefffe"
            d="M 241.5,223.5 C 242.833,224.167 242.833,224.167 241.5,223.5 Z" />
    </g>
    <g>
        <path style="opacity:0.872" fill="#0f0d0e"
            d="M 365.5,220.5 C 367.262,223.503 368.428,226.837 369,230.5C 369.905,237.375 370.739,244.209 371.5,251C 370.456,253.287 369.456,255.453 368.5,257.5C 370.058,244.964 369.058,232.631 365.5,220.5 Z" />
    </g>
    <g>
        <path style="opacity:0.004" fill="#fefffe"
            d="M 287.5,246.5 C 288.833,247.167 288.833,247.167 287.5,246.5 Z" />
    </g>
    <g>
        <path style="opacity:0.004" fill="#fefffe"
            d="M 35.5,247.5 C 36.8333,248.167 36.8333,248.167 35.5,247.5 Z" />
    </g>
    <g>
        <path style="opacity:0.004" fill="#fefffe"
            d="M 356.5,252.5 C 357.833,253.167 357.833,253.167 356.5,252.5 Z" />
    </g>
    <g>
        <path style="opacity:0.004" fill="#fefffe"
            d="M 57.5,260.5 C 58.8333,261.167 58.8333,261.167 57.5,260.5 Z" />
    </g>
    <g>
        <path style="opacity:0.004" fill="#fefffe"
            d="M 299.5,271.5 C 300.833,272.167 300.833,272.167 299.5,271.5 Z" />
    </g>
    <g>
        <path style="opacity:0.004" fill="#fefffe"
            d="M 51.5,282.5 C 52.8333,283.167 52.8333,283.167 51.5,282.5 Z" />
    </g>
    <g>
        <path style="opacity:0.004" fill="#fefffe"
            d="M 20.5,283.5 C 21.8333,284.167 21.8333,284.167 20.5,283.5 Z" />
    </g>
    <g>
        <path style="opacity:0.004" fill="#fefffe"
            d="M 149.5,284.5 C 150.833,285.167 150.833,285.167 149.5,284.5 Z" />
    </g>
    <g>
        <path style="opacity:0.004" fill="#fefffe"
            d="M 356.5,287.5 C 357.833,288.167 357.833,288.167 356.5,287.5 Z" />
    </g>
    <g>
        <path style="opacity:0.004" fill="#fefffe"
            d="M 149.5,290.5 C 150.833,291.167 150.833,291.167 149.5,290.5 Z" />
    </g>
    <g>
        <path style="opacity:0.004" fill="#fefffe"
            d="M 171.5,305.5 C 172.833,306.167 172.833,306.167 171.5,305.5 Z" />
    </g>
    <g>
        <path style="opacity:0.004" fill="#fefffe"
            d="M 290.5,311.5 C 291.833,312.167 291.833,312.167 290.5,311.5 Z" />
    </g>
    <g>
        <path style="opacity:0.457" fill="#0c0c0c"
            d="M 68.5,303.5 C 70.4279,307.537 72.0945,311.704 73.5,316C 73.1667,316.333 72.8333,316.667 72.5,317C 73.6765,318.674 75.0098,320.174 76.5,321.5C 75.7517,323.416 75.7517,325.416 76.5,327.5C 72.0608,320.183 69.3941,312.183 68.5,303.5 Z" />
    </g>
    <g>
        <path style="opacity:0.445" fill="#0a0909"
            d="M 155.5,315.5 C 158.089,316.419 160.089,318.086 161.5,320.5C 158.911,319.581 156.911,317.914 155.5,315.5 Z" />
    </g>
    <g>
        <path style="opacity:0.004" fill="#fefffe"
            d="M 3.5,318.5 C 4.83333,319.167 4.83333,319.167 3.5,318.5 Z" />
    </g>
    <g>
        <path style="opacity:0.675" fill="#090809"
            d="M 165.5,322.5 C 167.853,323.34 169.853,324.674 171.5,326.5C 168.802,326.155 166.802,324.822 165.5,322.5 Z" />
    </g>
    <g>
        <path style="opacity:0.851" fill="#090909"
            d="M 76.5,328.5 C 77.7498,328.577 78.5831,329.244 79,330.5C 79.4935,332.134 79.6602,333.801 79.5,335.5C 78.6586,333.188 77.6586,330.855 76.5,328.5 Z" />
    </g>
    <g>
        <path style="opacity:1" fill="#0d0b0c"
            d="M 171.5,326.5 C 177.13,327.929 182.464,329.929 187.5,332.5C 185.404,332.404 183.237,332.404 181,332.5C 180.333,331.167 179.333,330.167 178,329.5C 175.266,330.184 173.1,329.184 171.5,326.5 Z" />
    </g>
    <g>
        <path style="opacity:0.965" fill="#0e0d0e"
            d="M 127.5,329.5 C 122.146,327.839 116.979,328.172 112,330.5C 111.517,331.448 111.351,332.448 111.5,333.5C 109.923,331.006 110.59,329.173 113.5,328C 117.833,327.333 122.167,327.333 126.5,328C 127.056,328.383 127.389,328.883 127.5,329.5 Z" />
    </g>
    <g>
        <path style="opacity:0.959" fill="#0c0b0c"
            d="M 306.5,333.5 C 305.653,334.966 304.32,335.8 302.5,336C 299.026,336.301 295.692,337.134 292.5,338.5C 289.655,336.809 287.321,337.143 285.5,339.5C 284.522,339.189 283.855,338.522 283.5,337.5C 291.309,336.879 298.976,335.545 306.5,333.5 Z" />
    </g>
    <g>
        <path style="opacity:0.997" fill="#101010"
            d="M 203.5,336.5 C 207.555,336.176 211.555,336.509 215.5,337.5C 213.566,339.724 211.899,342.058 210.5,344.5C 210.815,342.774 210.981,341.107 211,339.5C 210.667,339.833 210.333,340.167 210,340.5C 208.208,338.372 206.042,337.039 203.5,336.5 Z" />
    </g>
    <g>
        <path style="opacity:0.686" fill="#0e0d0d"
            d="M 128.5,329.5 C 132.336,331.166 136.003,332.499 139.5,333.5C 141.632,337.131 144.299,340.298 147.5,343C 147.167,343.333 146.833,343.667 146.5,344C 147.833,344.667 149.167,345.333 150.5,346C 149.359,346.741 149.359,347.575 150.5,348.5C 151.85,350.386 153.517,351.886 155.5,353C 154.748,353.671 154.414,354.504 154.5,355.5C 150.863,351.579 147.696,347.246 145,342.5C 139.888,337.541 134.388,333.207 128.5,329.5 Z" />
    </g>
    <g>
        <path style="opacity:0.649" fill="#090808"
            d="M 123.5,342.5 C 126.517,343.998 128.517,346.331 129.5,349.5C 126.974,347.582 124.974,345.249 123.5,342.5 Z" />
    </g>
    <g>
        <path style="opacity:0.004" fill="#fefffe"
            d="M 443.5,346.5 C 444.833,347.167 444.833,347.167 443.5,346.5 Z" />
    </g>
    <g>
        <path style="opacity:0.004" fill="#fefffe"
            d="M 465.5,349.5 C 466.833,350.167 466.833,350.167 465.5,349.5 Z" />
    </g>
    <g>
        <path style="opacity:0.004" fill="#fefffe"
            d="M 473.5,350.5 C 474.833,351.167 474.833,351.167 473.5,350.5 Z" />
    </g>
    <g>
        <path style="opacity:0.69" fill="#0a0809"
            d="M 405.5,359.5 C 404.454,361.736 403.121,363.736 401.5,365.5C 401.633,362.634 402.966,360.634 405.5,359.5 Z" />
    </g>
    <g>
        <path style="opacity:0.004" fill="#fefffe"
            d="M 420.5,366.5 C 421.833,367.167 421.833,367.167 420.5,366.5 Z" />
    </g>
    <g>
        <path style="opacity:0.004" fill="#fefffe"
            d="M 276.5,375.5 C 277.833,376.167 277.833,376.167 276.5,375.5 Z" />
    </g>
    <g>
        <path style="opacity:0.441" fill="#090809"
            d="M 108.5,379.5 C 111.811,380.811 114.145,383.145 115.5,386.5C 114.761,386.631 114.094,386.464 113.5,386C 111.946,383.713 110.279,381.546 108.5,379.5 Z" />
    </g>
    <g>
        <path style="opacity:0.596" fill="#090909"
            d="M 145.5,377.5 C 148.83,379.169 151.497,381.502 153.5,384.5C 150.646,382.491 147.646,380.657 144.5,379C 145.056,378.617 145.389,378.117 145.5,377.5 Z" />
    </g>
    <g>
        <path style="opacity:0.004" fill="#fefffe"
            d="M 268.5,382.5 C 269.833,383.167 269.833,383.167 268.5,382.5 Z" />
    </g>
    <g>
        <path style="opacity:1" fill="#0b090a"
            d="M 153.5,384.5 C 156.82,385.393 159.82,386.727 162.5,388.5C 162.631,389.239 162.464,389.906 162,390.5C 161.121,387.654 159.454,386.987 157,388.5C 155.354,388.14 154.188,386.807 153.5,384.5 Z" />
    </g>
    <g>
        <path style="opacity:0.988" fill="#0d0c0c"
            d="M 115.5,386.5 C 119.687,388.271 122.687,391.271 124.5,395.5C 123.761,395.631 123.094,395.464 122.5,395C 120.332,392.002 117.999,389.169 115.5,386.5 Z" />
    </g>
    <g>
        <path style="opacity:0.54" fill="#0e0c0d"
            d="M 203.5,390.5 C 193.26,392.431 182.927,392.931 172.5,392C 171.584,391.722 170.918,391.222 170.5,390.5C 181.703,391.58 192.703,391.58 203.5,390.5 Z" />
    </g>
    <g>
        <path style="opacity:0.004" fill="#fefffe"
            d="M 19.5,392.5 C 20.8333,393.167 20.8333,393.167 19.5,392.5 Z" />
    </g>
    <g>
        <path style="opacity:0.461" fill="#070707"
            d="M 378.5,391.5 C 377.856,394.144 376.189,395.811 373.5,396.5C 373.343,395.127 373.51,393.793 374,392.5C 374.333,393.167 374.667,393.833 375,394.5C 376.039,393.29 377.206,392.29 378.5,391.5 Z" />
    </g>
    <g>
        <path style="opacity:0.73" fill="#110f10"
            d="M 286.5,342.5 C 289.588,344.082 292.254,346.248 294.5,349C 293.833,349.333 293.167,349.667 292.5,350C 294.255,352.93 295.422,356.097 296,359.5C 296.167,382.507 296.667,405.507 297.5,428.5C 298.848,426.539 300.181,426.372 301.5,428C 299.963,429.11 299.297,430.61 299.5,432.5C 297.926,432.063 296.759,431.063 296,429.5C 295.667,406.5 295.333,383.5 295,360.5C 293.589,353.735 290.755,347.735 286.5,342.5 Z" />
    </g>
    <g>
        <path style="opacity:0.11" fill="#090809"
            d="M 125.5,396.5 C 128.833,397.167 130.833,399.167 131.5,402.5C 129.5,400.5 127.5,398.5 125.5,396.5 Z" />
    </g>
    <g>
        <path style="opacity:0.433" fill="#080708"
            d="M 370.5,398.5 C 369.068,402.208 366.402,404.541 362.5,405.5C 362.414,404.504 362.748,403.671 363.5,403C 366.233,402.096 368.567,400.596 370.5,398.5 Z" />
    </g>
    <g>
        <path style="opacity:0.8" fill="#0c0a0b"
            d="M 140.5,408.5 C 137.474,406.462 134.474,404.462 131.5,402.5C 133.717,401.773 136.05,401.94 138.5,403C 137.833,403.333 137.167,403.667 136.5,404C 138.041,405.371 139.375,406.871 140.5,408.5 Z" />
    </g>
    <g>
        <path style="opacity:0.004" fill="#fefffe"
            d="M 239.5,406.5 C 240.833,407.167 240.833,407.167 239.5,406.5 Z" />
    </g>
    <g>
        <path style="opacity:0.004" fill="#fefffd"
            d="M 292.5,407.5 C 293.833,408.167 293.833,408.167 292.5,407.5 Z" />
    </g>
    <g>
        <path style="opacity:0.004" fill="#fefffe"
            d="M 251.5,408.5 C 252.833,409.167 252.833,409.167 251.5,408.5 Z" />
    </g>
    <g>
        <path style="opacity:0.004" fill="#fefffe"
            d="M 369.5,409.5 C 370.833,410.167 370.833,410.167 369.5,409.5 Z" />
    </g>
    <g>
        <path style="opacity:0.004" fill="#fefffe"
            d="M 471.5,422.5 C 472.833,423.167 472.833,423.167 471.5,422.5 Z" />
    </g>
    <g>
        <path style="opacity:0.627" fill="#0a090a"
            d="M 165.5,423.5 C 169.855,425.015 174.189,426.515 178.5,428C 179.381,428.708 180.047,429.542 180.5,430.5C 174.854,429.508 169.854,427.175 165.5,423.5 Z" />
    </g>
    <g>
        <path style="opacity:0.004" fill="#fefffe"
            d="M 353.5,428.5 C 354.833,429.167 354.833,429.167 353.5,428.5 Z" />
    </g>
    <g>
        <path style="opacity:0.753" fill="#090909"
            d="M 198.5,433.5 C 195.167,434.833 191.833,434.833 188.5,433.5C 192.011,433.163 195.344,433.163 198.5,433.5 Z" />
    </g>
    <g>
        <path style="opacity:0.004" fill="#fefffe"
            d="M 77.5,440.5 C 78.8333,441.167 78.8333,441.167 77.5,440.5 Z" />
    </g>
    <g>
        <path style="opacity:0.004" fill="#fefffe"
            d="M 336.5,440.5 C 337.833,441.167 337.833,441.167 336.5,440.5 Z" />
    </g>
    <g>
        <path style="opacity:0.004" fill="#fefffe"
            d="M 109.5,442.5 C 110.833,443.167 110.833,443.167 109.5,442.5 Z" />
    </g>
    <g>
        <path style="opacity:0.004" fill="#fefffe"
            d="M 317.5,442.5 C 318.833,443.167 318.833,443.167 317.5,442.5 Z" />
    </g>
    <g>
        <path style="opacity:0.004" fill="#fefffe"
            d="M 221.5,451.5 C 222.833,452.167 222.833,452.167 221.5,451.5 Z" />
    </g>
    <g>
        <path style="opacity:0.004" fill="#fefffe"
            d="M 426.5,463.5 C 427.833,464.167 427.833,464.167 426.5,463.5 Z" />
    </g>
    <g>
        <path style="opacity:0.004" fill="#fefffe"
            d="M 184.5,466.5 C 185.833,467.167 185.833,467.167 184.5,466.5 Z" />
    </g>
    <g>
        <path style="opacity:0.004" fill="#fefffe"
            d="M 184.5,478.5 C 185.833,479.167 185.833,479.167 184.5,478.5 Z" />
    </g>
    <g>
        <path style="opacity:0.004" fill="#fefffe"
            d="M 151.5,489.5 C 152.833,490.167 152.833,490.167 151.5,489.5 Z" />
    </g>
    <g>
        <path style="opacity:0.004" fill="#fefffe"
            d="M 71.5,495.5 C 72.8333,496.167 72.8333,496.167 71.5,495.5 Z" />
    </g>
    <g>
        <path style="opacity:0.004" fill="#fefffe"
            d="M 169.5,495.5 C 170.833,496.167 170.833,496.167 169.5,495.5 Z" />
    </g>
</svg>